<?xml version="1.0" standalone="no"?>
<!DOCTYPE svg PUBLIC "-//W3C//DTD SVG 20010904//EN"
 "http://www.w3.org/TR/2001/REC-SVG-20010904/DTD/svg10.dtd">
<svg version="1.0" xmlns="http://www.w3.org/2000/svg"
 width="160.000000pt" height="100.000000pt" viewBox="0 0 160.000000 100.000000"
 preserveAspectRatio="xMidYMid meet">

<g transform="translate(0.000000,100.000000) scale(0.100000,-0.100000)"
fill="#000000" stroke="none">
<path d="M842 933 c-2 -45 2 -63 11 -63 32 0 91 -24 138 -56 29 -19 58 -33 66
-30 36 14 -12 66 -61 66 -48 0 -66 9 -58 28 5 14 3 15 -9 5 -10 -8 -26 -10
-45 -4 -26 7 -30 12 -35 62 l-6 54 -1 -62z m192 -109 c27 -27 17 -36 -14 -12
-16 12 -30 23 -30 25 0 9 31 1 44 -13z"/>
<path d="M774 911 c16 -18 15 -20 -14 -45 -20 -16 -26 -26 -16 -26 8 0 24 12
35 26 16 20 18 31 10 45 -5 10 -15 19 -21 19 -6 0 -4 -8 6 -19z"/>
<path d="M668 897 c12 -14 7 -18 -37 -38 -49 -21 -73 -47 -31 -34 27 9 25 1
-7 -30 -32 -29 -60 -32 -66 -7 -4 15 -5 15 -6 0 0 -9 5 -20 12 -25 15 -10 57
-12 52 -2 -3 3 7 17 20 29 14 13 25 31 25 41 0 10 12 21 31 28 32 11 38 40 9
49 -13 4 -13 3 -2 -11z"/>
<path d="M689 776 c-160 -57 -242 -217 -195 -380 22 -74 106 -164 179 -191
l48 -18 70 69 c52 51 73 80 82 112 11 41 12 42 53 42 24 0 46 5 49 10 4 6 -15
10 -49 10 -30 0 -58 4 -61 10 -4 6 18 10 59 10 92 0 83 18 -11 23 l-78 3 88 2
c120 3 114 22 -7 22 -137 0 -132 19 6 23 l113 3 -121 2 c-136 2 -134 1 -134
78 0 47 25 108 57 136 17 16 21 16 63 -3 99 -44 160 -138 160 -245 0 -72 -13
-113 -52 -172 -31 -45 -111 -98 -165 -108 -18 -3 -38 -13 -45 -21 -10 -13 -6
-14 28 -8 150 26 258 151 259 300 0 136 -76 244 -202 289 l-41 15 -58 -60
c-69 -70 -93 -111 -94 -161 0 -30 -4 -37 -22 -41 -20 -4 -19 -4 5 -6 42 -2 32
-21 -12 -21 -66 0 -57 -19 11 -23 l63 -3 -72 -2 c-108 -3 -103 -22 6 -22 49 0
93 -4 96 -10 4 -6 -35 -10 -109 -10 -71 0 -116 -4 -116 -10 0 -6 48 -10 124
-10 115 0 125 -2 131 -20 14 -43 -48 -170 -83 -170 -30 0 -101 42 -133 78 -75
85 -95 209 -50 304 37 77 139 158 199 158 11 0 25 7 32 15 10 13 9 15 -11 15
-13 -1 -40 -7 -60 -14z"/>
<path d="M920 560 c0 -5 21 -10 46 -10 27 0 43 4 39 10 -3 6 -24 10 -46 10
-21 0 -39 -4 -39 -10z"/>
<path d="M990 195 c0 -13 62 -96 67 -91 3 3 -7 24 -22 46 -28 40 -45 57 -45
45z"/>
<path d="M560 175 c-11 -13 -9 -20 13 -43 15 -16 27 -34 27 -41 0 -22 -44 -7
-58 19 l-13 25 3 -25 c3 -26 41 -52 64 -43 21 8 17 47 -6 68 -26 23 -25 35 0
35 12 0 24 -10 30 -22 l9 -23 0 22 c1 12 -8 27 -18 33 -27 14 -36 13 -51 -5z"/>
<path d="M915 158 c-11 -6 -22 -12 -24 -14 -6 -5 33 -104 41 -104 11 0 10 7
-2 30 -8 15 -5 20 20 29 32 11 40 37 18 59 -15 15 -27 15 -53 0z m45 -28 c0
-11 -4 -20 -9 -20 -5 0 -16 -3 -24 -6 -17 -6 -31 33 -13 40 27 11 46 5 46 -14z"/>
<path d="M670 97 c-33 -55 -36 -66 -16 -46 23 21 66 13 66 -12 0 -11 4 -19 8
-19 4 0 4 27 -2 60 -5 33 -15 60 -20 60 -6 0 -22 -19 -36 -43z m36 -25 c-4 -3
-11 -1 -18 6 -8 8 -8 15 3 28 13 16 14 16 17 -5 2 -13 1 -25 -2 -29z"/>
<path d="M797 133 c-21 -3 -27 -9 -23 -20 3 -8 6 -32 6 -54 0 -21 4 -39 10
-39 5 0 9 10 7 22 -1 18 4 24 24 26 22 3 29 -2 37 -25 9 -24 10 -20 7 26 -4
47 -17 74 -35 69 -3 0 -18 -3 -33 -5z m51 -30 c-2 -11 -14 -19 -31 -21 -22 -3
-27 1 -27 17 0 17 6 21 31 21 24 0 30 -4 27 -17z"/>
</g>
</svg>
